<?xml version="1.0" encoding="UTF-8" standalone="no"?><!DOCTYPE svg PUBLIC "-//W3C//DTD SVG 1.1//EN" "http://www.w3.org/Graphics/SVG/1.1/DTD/svg11.dtd"><svg width="100%" height="100%" viewBox="0 0 2434 2434" version="1.1" xmlns="http://www.w3.org/2000/svg" xmlns:xlink="http://www.w3.org/1999/xlink" xml:space="preserve" xmlns:serif="http://www.serif.com/" style="fill-rule:evenodd;clip-rule:evenodd;stroke-linejoin:round;stroke-miterlimit:2;"><rect id="Artboard1" x="0" y="0" width="2433.333" height="2433.333" style="fill:none;"/><clipPath id="_clip1"><rect x="0" y="0" width="2433.333" height="2433.333"/></clipPath><g clip-path="url(#_clip1)"><rect x="-45.833" y="-43.75" width="2525" height="2520.833" style="fill:#111829;"/><g><clipPath id="_clip2"><path d="M1942.122,644.683c0,-3.819 0,-30.512 -20.964,-47.656c-15.256,-13.346 -32.422,-13.346 -38.129,-13.346c-123.937,-11.437 -219.271,-36.241 -286.003,-59.115c-62.912,-20.964 -120.117,-45.747 -160.156,-62.912c-62.912,-26.693 -116.298,-53.385 -154.427,-72.461c-1.91,-1.91 -11.437,-13.346 -28.602,-13.346c-9.527,0 -17.166,3.819 -22.873,7.639c-5.729,3.798 -9.549,7.617 -15.256,9.527c-95.334,49.566 -183.03,85.807 -257.4,112.5c-133.464,45.747 -240.234,64.822 -282.183,72.439c-34.31,5.729 -62.912,9.527 -83.876,11.437c-5.729,1.91 -11.437,3.819 -17.166,9.549c-17.166,13.346 -20.964,32.4 -22.873,40.039c0,146.81 1.91,293.598 1.91,440.408c13.346,-9.527 28.581,-17.144 45.747,-26.693c19.076,-9.527 36.22,-15.234 51.476,-20.964l0,-347.005c68.641,-9.527 144.9,-24.783 224.978,-47.656c143.012,-40.039 263.129,-91.515 360.352,-141.102c5.729,-3.798 13.346,-3.798 20.985,0c13.346,7.639 213.542,95.334 306.966,129.666c64.822,22.873 120.117,34.31 154.427,40.039c47.656,9.527 89.605,15.234 122.027,19.054c0,165.885 1.91,329.839 1.91,495.725c0,26.693 -1.91,68.641 -11.437,122.027c-5.729,34.31 -26.693,135.373 -93.424,245.942c-5.729,11.437 -22.895,36.22 -45.768,68.641c-38.129,49.566 -72.461,83.898 -99.154,108.681c-154.427,142.99 -242.122,173.503 -341.276,219.249c-5.707,1.91 -11.437,1.91 -17.166,0c-179.21,-80.078 -295.508,-183.03 -362.24,-249.761c0,0 -144.922,-148.72 -221.181,-402.3c-1.91,-7.617 -9.527,-34.31 1.91,-47.656c1.91,-3.819 5.729,-5.729 9.527,-9.527c3.819,-1.91 7.639,-5.729 11.458,-7.639c11.437,-5.707 22.873,-9.527 36.22,-9.527l183.03,0c19.076,0 38.129,5.729 53.385,19.076c5.729,5.707 13.346,11.437 19.076,19.054c34.31,38.129 28.581,68.641 64.822,95.334c7.617,5.729 24.783,17.166 51.476,19.076c32.4,1.888 57.205,-15.256 61.003,-20.985c26.693,-20.964 32.422,-49.566 32.422,-57.205c28.602,-106.771 57.205,-211.632 87.695,-318.403c38.129,165.885 74.371,333.659 112.5,499.544c1.91,5.707 3.819,13.346 9.527,20.964c1.91,3.819 15.256,19.076 32.422,17.166c7.617,0 11.437,-3.819 15.256,-5.729c13.346,-9.527 19.054,-26.693 19.054,-30.49c5.729,-22.895 41.949,-116.319 89.605,-247.873c53.385,0 106.771,-1.91 158.247,-1.91c22.895,-3.798 40.039,-24.783 38.151,-45.747c-1.91,-19.076 -17.166,-34.332 -36.241,-38.129l-162.066,0c-3.798,0 -19.054,-1.91 -34.31,7.617c-15.256,9.527 -20.964,20.985 -22.873,26.693c-19.076,45.768 -40.039,93.424 -59.115,139.193c-38.129,-165.885 -78.168,-333.659 -116.298,-499.544c-1.91,-20.964 -19.076,-36.22 -38.129,-38.129c-22.873,-1.91 -43.859,17.166 -43.859,41.949c-40.039,146.81 -80.078,293.62 -122.027,438.52c-5.707,7.617 -15.256,11.437 -22.873,9.527c-7.617,-1.91 -15.256,-7.617 -17.166,-17.144c-9.527,-26.693 -28.602,-72.461 -74.349,-101.063c-24.783,-15.256 -41.949,-20.964 -74.371,-20.964l-104.861,0c-61.003,0 -101.042,1.91 -118.207,1.91c-49.566,1.888 -93.424,36.22 -106.771,51.476c-102.951,112.478 116.319,489.996 209.744,570.074c20.964,24.783 192.556,169.683 244.032,200.195c53.385,34.31 122.027,74.349 192.578,101.042c5.707,1.91 13.346,3.819 13.346,3.819l5.707,0c7.639,0 13.346,-1.91 20.985,-3.819c253.581,-112.478 398.481,-247.852 398.481,-247.852c74.349,-76.259 181.12,-184.939 240.234,-364.171c34.31,-104.861 41.949,-196.376 41.949,-259.288c-7.639,-183.051 -7.639,-360.352 -9.549,-537.674Z"/></clipPath><g clip-path="url(#_clip2)"><rect x="481.662" y="375.846" width="1470.009" height="1681.641" style="fill:url(#_Linear3);fill-rule:nonzero;"/></g></g></g><defs><linearGradient id="_Linear3" x1="0" y1="0" x2="1" y2="0" gradientUnits="userSpaceOnUse" gradientTransform="matrix(1849.424747,-913.282373,913.282373,1849.424747,277.652588,1644.358454)"><stop offset="0" style="stop-color:#fefefe;stop-opacity:1"/><stop offset="0.19" style="stop-color:#fdfefd;stop-opacity:1"/><stop offset="0.19" style="stop-color:#fcfdfd;stop-opacity:1"/><stop offset="0.2" style="stop-color:#fbfdfc;stop-opacity:1"/><stop offset="0.2" style="stop-color:#fafcfc;stop-opacity:1"/><stop offset="0.21" style="stop-color:#f6faf9;stop-opacity:1"/><stop offset="0.22" style="stop-color:#f4f9f8;stop-opacity:1"/><stop offset="0.23" style="stop-color:#f3f9f7;stop-opacity:1"/><stop offset="0.23" style="stop-color:#f2f8f7;stop-opacity:1"/><stop offset="0.25" style="stop-color:#eef6f4;stop-opacity:1"/><stop offset="0.27" style="stop-color:#e9f4f1;stop-opacity:1"/><stop offset="0.27" style="stop-color:#e8f4f1;stop-opacity:1"/><stop offset="0.27" style="stop-color:#e7f3f0;stop-opacity:1"/><stop offset="0.28" style="stop-color:#e6f3ef;stop-opacity:1"/><stop offset="0.28" style="stop-color:#e5f2ef;stop-opacity:1"/><stop offset="0.29" style="stop-color:#e4f2ee;stop-opacity:1"/><stop offset="0.29" style="stop-color:#e3f1ee;stop-opacity:1"/><stop offset="0.3" style="stop-color:#e1f0ec;stop-opacity:1"/><stop offset="0.3" style="stop-color:#e0f0ec;stop-opacity:1"/><stop offset="0.3" style="stop-color:#dfefeb;stop-opacity:1"/><stop offset="0.31" style="stop-color:#deefea;stop-opacity:1"/><stop offset="0.31" style="stop-color:#ddeeea;stop-opacity:1"/><stop offset="0.32" style="stop-color:#dceee9;stop-opacity:1"/><stop offset="0.32" style="stop-color:#dbede9;stop-opacity:1"/><stop offset="0.33" style="stop-color:#d9ece7;stop-opacity:1"/><stop offset="0.33" style="stop-color:#d8ece7;stop-opacity:1"/><stop offset="0.34" style="stop-color:#d7ece6;stop-opacity:1"/><stop offset="0.34" style="stop-color:#d6ebe6;stop-opacity:1"/><stop offset="0.35" style="stop-color:#d4eae4;stop-opacity:1"/><stop offset="0.35" style="stop-color:#d3eae4;stop-opacity:1"/><stop offset="0.36" style="stop-color:#d2e9e3;stop-opacity:1"/><stop offset="0.37" style="stop-color:#cfe8e1;stop-opacity:1"/><stop offset="0.37" style="stop-color:#cee7e1;stop-opacity:1"/><stop offset="0.39" style="stop-color:#cae5de;stop-opacity:1"/><stop offset="0.4" style="stop-color:#c7e4dc;stop-opacity:1"/><stop offset="0.4" style="stop-color:#c6e3dc;stop-opacity:1"/><stop offset="0.41" style="stop-color:#c5e3db;stop-opacity:1"/><stop offset="0.41" style="stop-color:#c4e2db;stop-opacity:1"/><stop offset="0.42" style="stop-color:#c2e1d9;stop-opacity:1"/><stop offset="0.43" style="stop-color:#c0e1d8;stop-opacity:1"/><stop offset="0.43" style="stop-color:#bfe0d8;stop-opacity:1"/><stop offset="0.44" style="stop-color:#bddfd6;stop-opacity:1"/><stop offset="0.44" style="stop-color:#bcdfd6;stop-opacity:1"/><stop offset="0.45" style="stop-color:#bbded5;stop-opacity:1"/><stop offset="0.45" style="stop-color:#baded4;stop-opacity:1"/><stop offset="0.45" style="stop-color:#b9ddd4;stop-opacity:1"/><stop offset="0.46" style="stop-color:#b8ddd3;stop-opacity:1"/><stop offset="0.46" style="stop-color:#b7dcd3;stop-opacity:1"/><stop offset="0.47" style="stop-color:#b5dbd1;stop-opacity:1"/><stop offset="0.48" style="stop-color:#b1d9cf;stop-opacity:1"/><stop offset="0.49" style="stop-color:#b0d9ce;stop-opacity:1"/><stop offset="0.49" style="stop-color:#afd8ce;stop-opacity:1"/><stop offset="0.5" style="stop-color:#aed8cd;stop-opacity:1"/><stop offset="0.5" style="stop-color:#add7cd;stop-opacity:1"/><stop offset="0.53" style="stop-color:#a6d4c8;stop-opacity:1"/><stop offset="0.54" style="stop-color:#a3d3c6;stop-opacity:1"/><stop offset="0.54" style="stop-color:#a2d2c6;stop-opacity:1"/><stop offset="0.55" style="stop-color:#a1d2c5;stop-opacity:1"/><stop offset="0.55" style="stop-color:#a0d1c5;stop-opacity:1"/><stop offset="0.56" style="stop-color:#9ed0c3;stop-opacity:1"/><stop offset="0.57" style="stop-color:#9ccfc2;stop-opacity:1"/><stop offset="0.57" style="stop-color:#9bcfc2;stop-opacity:1"/><stop offset="0.57" style="stop-color:#9acec1;stop-opacity:1"/><stop offset="0.58" style="stop-color:#99cec0;stop-opacity:1"/><stop offset="0.58" style="stop-color:#98cdc0;stop-opacity:1"/><stop offset="0.59" style="stop-color:#96ccbe;stop-opacity:1"/><stop offset="0.6" style="stop-color:#94ccbd;stop-opacity:1"/><stop offset="0.6" style="stop-color:#93cbbd;stop-opacity:1"/><stop offset="0.61" style="stop-color:#91cabb;stop-opacity:1"/><stop offset="0.61" style="stop-color:#90cabb;stop-opacity:1"/><stop offset="0.62" style="stop-color:#8fc9ba;stop-opacity:1"/><stop offset="0.63" style="stop-color:#8dc8b9;stop-opacity:1"/><stop offset="0.63" style="stop-color:#8cc8b8;stop-opacity:1"/><stop offset="0.63" style="stop-color:#8bc7b8;stop-opacity:1"/><stop offset="0.64" style="stop-color:#8ac7b7;stop-opacity:1"/><stop offset="0.64" style="stop-color:#89c6b7;stop-opacity:1"/><stop offset="0.64" style="stop-color:#88c6b6;stop-opacity:1"/><stop offset="0.65" style="stop-color:#87c5b5;stop-opacity:1"/><stop offset="0.66" style="stop-color:#85c4b4;stop-opacity:1"/><stop offset="0.66" style="stop-color:#84c4b3;stop-opacity:1"/><stop offset="0.66" style="stop-color:#83c3b3;stop-opacity:1"/><stop offset="0.67" style="stop-color:#82c3b2;stop-opacity:1"/><stop offset="0.67" style="stop-color:#81c2b2;stop-opacity:1"/><stop offset="0.68" style="stop-color:#80c2b1;stop-opacity:1"/><stop offset="0.68" style="stop-color:#7fc1b0;stop-opacity:1"/><stop offset="0.69" style="stop-color:#7dc1af;stop-opacity:1"/><stop offset="0.69" style="stop-color:#7cc0af;stop-opacity:1"/><stop offset="0.7" style="stop-color:#7bc0ae;stop-opacity:1"/><stop offset="0.7" style="stop-color:#7abfad;stop-opacity:1"/><stop offset="0.71" style="stop-color:#76bdab;stop-opacity:1"/><stop offset="0.72" style="stop-color:#75bdaa;stop-opacity:1"/><stop offset="0.72" style="stop-color:#74bcaa;stop-opacity:1"/><stop offset="0.73" style="stop-color:#72bba8;stop-opacity:1"/><stop offset="0.75" style="stop-color:#6eb9a6;stop-opacity:1"/><stop offset="0.75" style="stop-color:#6db9a5;stop-opacity:1"/><stop offset="0.75" style="stop-color:#6cb8a5;stop-opacity:1"/><stop offset="0.76" style="stop-color:#6bb8a4;stop-opacity:1"/><stop offset="0.76" style="stop-color:#6ab7a4;stop-opacity:1"/><stop offset="0.77" style="stop-color:#68b6a2;stop-opacity:1"/><stop offset="0.77" style="stop-color:#67b6a2;stop-opacity:1"/><stop offset="0.78" style="stop-color:#66b6a1;stop-opacity:1"/><stop offset="0.78" style="stop-color:#65b5a1;stop-opacity:1"/><stop offset="0.8" style="stop-color:#61b39e;stop-opacity:1"/><stop offset="0.8" style="stop-color:#60b39d;stop-opacity:1"/><stop offset="0.8" style="stop-color:#5fb29d;stop-opacity:1"/><stop offset="0.81" style="stop-color:#5eb29c;stop-opacity:1"/><stop offset="0.81" style="stop-color:#5db19c;stop-opacity:1"/><stop offset="0.83" style="stop-color:#59af99;stop-opacity:1"/><stop offset="0.83" style="stop-color:#58af99;stop-opacity:1"/><stop offset="0.84" style="stop-color:#57ae98;stop-opacity:1"/><stop offset="0.84" style="stop-color:#56ae97;stop-opacity:1"/><stop offset="0.84" style="stop-color:#55ad97;stop-opacity:1"/><stop offset="0.85" style="stop-color:#54ad96;stop-opacity:1"/><stop offset="0.85" style="stop-color:#53ac96;stop-opacity:1"/><stop offset="0.86" style="stop-color:#51ac94;stop-opacity:1"/><stop offset="0.86" style="stop-color:#50ab94;stop-opacity:1"/><stop offset="0.87" style="stop-color:#4eaa92;stop-opacity:1"/><stop offset="0.88" style="stop-color:#4ca991;stop-opacity:1"/><stop offset="0.88" style="stop-color:#4ba991;stop-opacity:1"/><stop offset="0.89" style="stop-color:#4aa890;stop-opacity:1"/><stop offset="0.89" style="stop-color:#49a88f;stop-opacity:1"/><stop offset="0.89" style="stop-color:#48a78f;stop-opacity:1"/><stop offset="0.9" style="stop-color:#47a78e;stop-opacity:1"/><stop offset="0.9" style="stop-color:#46a68e;stop-opacity:1"/><stop offset="0.91" style="stop-color:#44a58c;stop-opacity:1"/><stop offset="0.91" style="stop-color:#43a58c;stop-opacity:1"/><stop offset="0.92" style="stop-color:#42a48b;stop-opacity:1"/><stop offset="0.93" style="stop-color:#3fa389;stop-opacity:1"/><stop offset="0.93" style="stop-color:#3ea289;stop-opacity:1"/><stop offset="1" style="stop-color:#3da288;stop-opacity:1"/></linearGradient></defs></svg>